# xmcd
#
# Track frame offsets:
#	150
#	19925
#	40607
#	64057
#	83395
#	99035
#	123160
#	144140
#	168100
#	190322
#	206700
#	216132
#
# Disc length: 3175 seconds
#
# Revision: 0
# Processed by: cddbd v1.5PL3 Copyright (c) Steve Scherf et al.
# Submitted via: dBpowerAMP V4.0
#
DISCID=8f0c650c
DTITLE=Bobby Hinton - My Time
DYEAR=1900
DGENRE=
TTITLE0=Your Love Was So Good While It Lasted
TTITLE1=Father Time
TTITLE2=Your Love Woke Me Up
TTITLE3=Loving You
TTITLE4=We've Said Our Goodbyes
TTITLE5=Rainy Night In Georgia
TTITLE6=You're The Boss
TTITLE7=Mr. Grey Head
TTITLE8=Changes
TTITLE9=I Sing My Song
TTITLE10=Nothin' But The Blues
TTITLE11=Cocaine
EXTD=
EXTT0=
EXTT1=
EXTT2=
EXTT3=
EXTT4=
EXTT5=
EXTT6=
EXTT7=
EXTT8=
EXTT9=
EXTT10=
EXTT11=
PLAYORDER=
